Coordinates
version=1
nRows=32
nColumns=22
inDegrees=yes

Units are S.I. units (second, meters, Newtons, ...)
If the header above contains a line with 'inDegrees', this indicates whether rotational values are in degrees (yes) or radians (no).

endheader
time	pelvis_tilt	pelvis_list	pelvis_rotation	pelvis_tx	pelvis_ty	pelvis_tz	hip_flexion_r	hip_adduction_r	hip_rotation_r	knee_angle_r	ankle_angle_r	subtalar_angle_r	hip_flexion_l	hip_adduction_l	hip_rotation_l	knee_angle_l	ankle_angle_l	subtalar_angle_l	lumbar_extension	lumbar_bending	lumbar_rotation
      3.51000000	      0.38297956	     -3.88710993	    -74.35526809	      0.02284288	      0.98917235	      0.50282784	     21.37286449	      2.32354492	    -15.50939105	    -15.71772385	     -2.28869710	     -0.64635445	    -10.14144415	      0.42608812	     -8.19319798	    -24.67409743	     18.90671930	      5.27147197	    -13.64581875	      1.22041442	     -3.39805913
      3.52000000	     -0.03709042	     -3.96410611	    -74.53741495	      0.02439568	      0.98938472	      0.51119980	     21.36590110	      2.75335156	    -15.41418866	    -16.42065342	     -2.87979462	     -1.43115947	     -9.93429984	     -0.08411730	     -8.00554455	    -25.96976925	     18.32663186	      5.84665331	    -13.41447009	      1.73006676	     -3.21987817
      3.53000000	     -0.43812919	     -4.04911407	    -74.77811303	      0.02585234	      0.98978131	      0.51956986	     21.35220951	      3.17644084	    -15.27353521	    -17.17689129	     -3.22256729	     -2.17162808	     -9.71243783	     -0.55965950	     -7.81020934	    -27.30243361	     17.57092992	      6.48004213	    -13.20954393	      2.21540149	     -2.98050787
      3.54000000	     -0.81163789	     -4.14744890	    -75.06621201	      0.02719064	      0.99033514	      0.52789499	     21.30848710	      3.59343364	    -15.07741782	    -17.95049136	     -3.33723870	     -2.80231072	     -9.46473725	     -1.01291210	     -7.66274306	    -28.70144264	     16.68465299	      7.11243305	    -13.04818541	      2.66788108	     -2.73042818
      3.55000000	     -1.17459017	     -4.25027142	    -75.40553333	      0.02840274	      0.99101725	      0.53618775	     21.21879623	      4.03078956	    -14.82578146	    -18.67652402	     -3.30178477	     -3.27284767	     -9.19022476	     -1.45806331	     -7.55720266	    -30.14359525	     15.67087713	      7.64045067	    -12.91096099	      3.10073815	     -2.42781278
      3.56000000	     -1.44015604	     -4.34586873	    -75.74338651	      0.02954798	      0.99181958	      0.54437738	     21.08368311	      4.38091905	    -14.55946246	    -19.37819657	     -3.05541334	     -3.79439331	     -8.89941987	     -1.80574866	     -7.42359293	    -31.60243629	     14.47563051	      8.34530035	    -12.81418434	      3.41945558	     -2.18885280
      3.57000000	     -1.68636298	     -4.43204774	    -76.09879691	      0.03057238	      0.99268495	      0.55248490	     20.89063068	      4.73848868	    -14.26509732	    -19.96947254	     -2.75454520	     -4.18840704	     -8.56513244	     -2.14944306	     -7.33043427	    -33.09557113	     13.18032085	      8.92259654	    -12.72801930	      3.70226350	     -1.93906531
      3.58000000	     -1.89173497	     -4.49818659	    -76.44935330	      0.03151350	      0.99358938	      0.56046240	     20.65215027	      5.06858129	    -13.96552245	    -20.45771487	     -2.39601992	     -4.51473779	     -8.18174172	     -2.46542457	     -7.25005768	    -34.61077268	     11.77746319	      9.42013404	    -12.64770017	      3.92972530	     -1.71948648
      3.59000000	     -2.05522301	     -4.53878724	    -76.76528676	      0.03240829	      0.99450863	      0.56827876	     20.37521495	      5.35336414	    -13.71341716	    -20.84095149	     -1.98351414	     -4.79725834	     -7.73569419	     -2.75361828	     -7.14142316	    -36.15056237	     10.29193812	      9.87848905	    -12.56467305	      4.10071776	     -1.54402209
      3.60000000	     -2.19144085	     -4.56013303	    -77.04350323	      0.03328045	      0.99543040	      0.57591133	     20.06592242	      5.60240310	    -13.51273838	    -21.13167855	     -1.53668652	     -5.01459394	     -7.22779732	     -3.03016101	     -7.00418871	    -37.71606792	      8.76818008	     10.23864641	    -12.48205855	      4.23950270	     -1.41394498
      3.61000000	     -2.30248935	     -4.54025030	    -77.27834749	      0.03410821	      0.99629463	      0.58332086	     19.75283009	      5.81546856	    -13.33909461	    -21.32785560	     -1.05313393	     -5.19900608	     -6.61339916	     -3.30374795	     -6.86294044	    -39.34188038	      7.24704481	     10.56849426	    -12.37896826	      4.34066265	     -1.35887046
      3.62000000	     -2.40609215	     -4.52253245	    -77.48298836	      0.03494437	      0.99716128	      0.59051576	     19.41123439	      6.01016693	    -13.21551776	    -21.46181042	     -0.57530106	     -5.31146497	     -5.95223078	     -3.58231692	     -6.69164055	    -40.99685700	      5.72955499	     10.77022557	    -12.30014582	      4.44350235	     -1.31495599
      3.63000000	     -2.50432036	     -4.45975169	    -77.65037536	      0.03575797	      0.99792860	      0.59746111	     19.10483241	      6.18132134	    -13.10595635	    -21.55143910	     -0.09485281	     -5.39166106	     -5.17102869	     -3.86449633	     -6.49690204	    -42.71478100	      4.26427121	     10.95412263	    -12.19264840	      4.53276653	     -1.33083797
      3.64000000	     -2.60293722	     -4.40045384	    -77.79514965	      0.03658153	      0.99867286	      0.60417272	     18.78897810	      6.34547156	    -13.00914534	    -21.60777939	      0.37655664	     -5.42904110	     -4.33572656	     -4.15099242	     -6.27369692	    -44.46773724	      2.83723857	     11.07596651	    -12.11170582	      4.63321162	     -1.35748056
      3.65000000	     -2.70367025	     -4.31792133	    -77.91789296	      0.03742930	      0.99933610	      0.61063890	     18.50047613	      6.49909886	    -12.90496698	    -21.64241643	      0.84596126	     -5.43472816	     -3.41430292	     -4.43281161	     -6.02345367	    -46.25700744	      1.47414681	     11.17028877	    -12.02834487	      4.74228560	     -1.40181029
      3.66000000	     -2.81362283	     -4.24476118	    -78.02886701	      0.03828863	      0.99996575	      0.61687920	     18.21293570	      6.65616150	    -12.81311474	    -21.66852026	      1.27490492	     -5.41939862	     -2.45103877	     -4.72002132	     -5.75389879	    -48.05849997	      0.18029478	     11.23490724	    -11.97687095	      4.86995232	     -1.43499768
      3.67000000	     -2.92933494	     -4.16755155	    -78.13738002	      0.03915569	      1.00054127	      0.62291051	     17.93925499	      6.81520881	    -12.70927202	    -21.68639714	      1.68801638	     -5.39224815	     -1.44295206	     -5.00451774	     -5.48021047	    -49.85082956	     -1.00366960	     11.29400486	    -11.94063304	      5.00931088	     -1.44689193
      3.68000000	     -3.05351878	     -4.10005252	    -78.25014766	      0.04001018	      1.00108647	      0.62873957	     17.66373536	      6.98597399	    -12.59106152	    -21.69151035	      2.06795337	     -5.36236967	     -0.41308835	     -5.29736151	     -5.22157618	    -51.61065636	     -2.02899337	     11.35920636	    -11.93648810	      5.16443318	     -1.42764243
      3.69000000	     -3.17813540	     -4.02922621	    -78.37864575	      0.04083262	      1.00159491	      0.63439167	     17.39893578	      7.15909275	    -12.45752897	    -21.69075718	      2.43702034	     -5.32946439	      0.63716267	     -5.59114170	     -4.99723023	    -53.30504054	     -2.84689481	     11.44371716	    -11.94634987	      5.31594271	     -1.35161767
      3.70000000	     -3.32226224	     -3.98689045	    -78.51773292	      0.04159739	      1.00212902	      0.63988463	     17.09226465	      7.36966852	    -12.29266869	    -21.63709243	      2.74318177	     -5.30835700	      1.66901183	     -5.92738401	     -4.81734437	    -54.90659699	     -3.39531152	     11.51107510	    -12.00064112	      5.49192190	     -1.24699878
      3.71000000	     -3.47531461	     -3.97171239	    -78.68640915	      0.04227768	      1.00269540	      0.64523392	     16.75648906	      7.60137291	    -12.13207625	    -21.56300719	      3.01721316	     -5.29915852	      2.66745329	     -6.29987009	     -4.70632850	    -56.38080713	     -3.66655856	     11.53018324	    -12.10063648	      5.67292474	     -1.05629853
      3.72000000	     -3.62593689	     -3.94062147	    -78.87444638	      0.04285646	      1.00324468	      0.65043054	     16.42704502	      7.84029084	    -11.93235402	    -21.45269306	      3.27423465	     -5.29332064	      3.67348840	     -6.68471250	     -4.63991102	    -57.70612894	     -3.62694662	     11.46785565	    -12.19471618	      5.83449371	     -0.82432865
      3.73000000	     -3.77693767	     -3.89899609	    -79.08541697	      0.04333107	      1.00379684	      0.65547980	     16.09957150	      8.08756608	    -11.71164958	    -21.30796965	      3.48468173	     -5.29152579	      4.67376846	     -7.08653746	     -4.61928282	    -58.85940771	     -3.29433475	     11.26718462	    -12.28845710	      5.98060704	     -0.53718270
      3.74000000	     -3.91725654	     -3.80544475	    -79.30943959	      0.04371225	      1.00430506	      0.66037877	     15.81212044	      8.32426254	    -11.44890569	    -21.12274722	      3.66817231	     -5.28799847	      5.70956527	     -7.47844379	     -4.62553842	    -59.82524538	     -2.73664076	     10.74303020	    -12.33019609	      6.09212301	     -0.22429403
      3.75000000	     -4.04869969	     -3.74470106	    -79.56051920	      0.04401597	      1.00489664	      0.66518398	     15.47562567	      8.56101204	    -11.20315180	    -20.90849554	      3.83290233	     -5.30155408	      6.66575675	     -7.88068590	     -4.67598843	    -60.57172570	     -1.93407734	     10.05804736	    -12.41342639	      6.18850898	      0.16400575
      3.76000000	     -4.16854634	     -3.67397832	    -79.82648346	      0.04425626	      1.00551505	      0.66987862	     15.13502881	      8.78802833	    -10.94575330	    -20.66105154	      3.95922472	     -5.31919239	      7.59331153	     -8.26922656	     -4.74144203	    -61.10124345	     -0.98288712	      9.24997142	    -12.48807753	      6.25967586	      0.58845132
      3.77000000	     -4.27964775	     -3.59164695	    -80.10269466	      0.04445082	      1.00614989	      0.67443734	     14.79762000	      9.00733536	    -10.66222841	    -20.38693928	      4.04915047	     -5.33743228	      8.49836084	     -8.63640440	     -4.80427560	    -61.41873411	      0.05783085	      8.36236233	    -12.55548204	      6.31319696	      1.03013401
      3.78000000	     -4.36314788	     -3.49883730	    -80.37579355	      0.04465939	      1.00681616	      0.67893554	     14.45295509	      9.18748320	    -10.41574956	    -20.08571409	      4.13290366	     -5.35342564	      9.36061364	     -8.95353187	     -4.85935608	    -61.50757366	      1.14172463	      7.38322989	    -12.60125050	      6.33041586	      1.47702191
      3.79000000	     -4.44107540	     -3.40496157	    -80.64311432	      0.04488003	      1.00750455	      0.68332361	     14.09662523	      9.36042714	    -10.15142516	    -19.75192024	      4.18691757	     -5.36852061	     10.18809658	     -9.23824302	     -4.88656211	    -61.39480384	      2.21398605	      6.45606928	    -12.64399291	      6.34287356	      1.91123097
      3.80000000	     -4.50506348	     -3.31403834	    -80.89608908	      0.04514183	      1.00820860	      0.68760125	     13.73459896	      9.51067968	     -9.90073461	    -19.40853577	      4.22570933	     -5.38487149	     10.97366944	     -9.47444730	     -4.87807753	    -61.08681263	      3.25801607	      5.58183888	    -12.68952559	      6.34279661	      2.32993004
      3.81000000	     -4.55441148	     -3.22607077	    -81.13374803	      0.04546610	      1.00891602	      0.69176392	     13.36825637	      9.63590466	     -9.66759501	    -19.05760124	      4.25608832	     -5.40501955	     11.71716568	     -9.65753697	     -4.83456619	    -60.59512658	      4.25822240	      4.78355952	    -12.73684690	      6.33270312	      2.73133781
      3.82000000	     -4.60357195	     -3.13141725	    -81.37089044	      0.04581781	      1.00960101	      0.69583930	     13.00261335	      9.75886019	     -9.40985699	    -18.68459601	      4.26973001	     -5.42881794	     12.42651741	     -9.80986583	     -4.77468578	    -59.93533190	      5.19897147	      4.13571593	    -12.76973850	      6.32546161	      3.11325857
